# xmcd
#
# Track frame offsets:
#	150
#	22134
#	43725
#	59214
#	79715
#	93882
#	113748
#	128540
#	148003
#	165965
#	182548
#	203339
#
# Disc length: 2971 seconds
#
# Revision: 0
# Processed by: cddbd v1.5.2PL0 Copyright (c) Steve Scherf et al.
# Submitted via: EasyCDDAExtractor 12.1.0.1
#
DISCID=970b990c
DTITLE=Various Artist - house of love disc 2
DYEAR=2009
DGENRE=pop
TTITLE0=INSTINCT - โปรดส่งใครมารักฉันที
TTITLE1=แนน วาทิยา - พรหมลิขิต
TTITLE2=ROSE ศิรินทิพย์ - ความรักทำให้คนตาบอด
TTITLE3=POTATO - รักเธอไปทุกวัน
TTITLE4=ใบเตย พิมพรรณ จันทร์อุดม - เสียงของหัวใจ
TTITLE5=อีฟ พุทธธิดา ศิระฉายา - ครึ่งใจ
TTITLE6=แพง ขวัญข้าว - คนใจง่าย
TTITLE7=ลูกปัด - เส้นผมบังภูเขา
TTITLE8=มิ้น สวรรยา - สักวันคงเจอ
TTITLE9=KAL - ไม่ใช่ใครก็ได้
TTITLE10=แนน วาทิยา - รับได้ไหม
TTITLE11=พลอย ณัฐชา - ขอบคุณที่รักกัน
EXTD=
EXTT0=
EXTT1=
EXTT2=
EXTT3=
EXTT4=
EXTT5=
EXTT6=
EXTT7=
EXTT8=
EXTT9=
EXTT10=
EXTT11=
PLAYORDER=
